<svg width="292" height="72" viewBox="0 0 292 72" fill="none" xmlns="http://www.w3.org/2000/svg">
<g clip-path="url(#clip0_57_373)">
<mask id="mask0_57_373" style="mask-type:alpha" maskUnits="userSpaceOnUse" x="1" y="1" width="70" height="70">
<circle cx="36" cy="36" r="35" fill="#D9D9D9"/>
</mask>
<g mask="url(#mask0_57_373)">
<path fill-rule="evenodd" clip-rule="evenodd" d="M36 46.0625C41.5574 46.0625 46.0625 41.5574 46.0625 36C46.0625 30.4426 41.5574 25.9375 36 25.9375C30.4426 25.9375 25.9375 30.4426 25.9375 36C25.9375 41.5574 30.4426 46.0625 36 46.0625ZM36 41.25C38.8995 41.25 41.25 38.8995 41.25 36C41.25 33.1005 38.8995 30.75 36 30.75C33.1005 30.75 30.75 33.1005 30.75 36C30.75 38.8995 33.1005 41.25 36 41.25Z" fill="url(#paint0_linear_57_373)"/>
<path d="M11.1038 7.2106C6.40822 29.2771 17.2303 39.5738 24.9881 42.6386C13.7189 24.1681 48.1756 6.9023 61.8538 7.92391C59.9387 5.5462 55.6587 3.07113 54.2296 2.66249C33.6102 5.52296 26.3287 16.3519 24.015 21.2555C27.4856 5.31864 43.6817 0.823585 49.9424 0.619272C45.3694 -1.83256 38.1015 -2.17309 35.0392 -2.03688C17.0738 7.28008 17.0738 23.6393 19.3195 30.6543C8.70355 11.0396 29.9354 -1.62821 29.9354 -1.62821C20.4627 0.00634813 13.2133 4.55445 11.1038 7.2106Z" fill="url(#paint1_linear_57_373)"/>
<path d="M23.508 71.5641C44.9574 64.5675 48.5013 50.1052 47.3024 41.8969C36.8995 60.8321 4.82377 39.8188 -1.08649 27.538C-2.19494 30.3752 -2.21282 35.2961 -1.85689 36.7301C10.8649 53.042 23.8636 53.8912 29.2612 53.4294C13.7305 58.4142 1.79019 46.7261 -1.4971 41.4411C-1.34931 46.6025 1.96632 53.0266 3.60566 55.5935C20.6023 66.3923 34.7747 58.2099 39.7362 52.7688C28.0176 71.7143 6.49526 59.7808 6.49526 59.7808C12.6173 67.1143 20.1589 71.0774 23.508 71.5641Z" fill="url(#paint2_linear_57_373)"/>
<path d="M72.9052 28.719C56.1212 13.6415 41.8246 17.8035 35.3154 22.9461C56.9153 22.4876 54.7551 60.7726 47.0747 72.0315C50.086 71.5728 54.3565 69.1279 55.4205 68.1026C63.1861 48.9293 57.4222 37.2475 54.3234 32.8039C66.4058 43.7614 62.2537 59.9461 59.3205 65.4355C63.7164 62.7269 67.6221 56.6434 69.0254 53.9402C69.8791 33.8213 55.7067 25.6389 48.5139 24.0625C70.7805 24.7385 71.2069 49.3441 71.2069 49.3441C74.4969 40.3755 74.1582 31.8627 72.9052 28.719Z" fill="url(#paint3_linear_57_373)"/>
</g>
<path d="M107.104 13.416C113.056 13.416 116.032 16.584 116.032 22.92V50.496C116.032 56.832 113.056 60 107.104 60H88.6V13.416H107.104ZM105.952 51.648V21.696C105.952 21.312 105.808 20.976 105.52 20.688C105.28 20.4 104.968 20.256 104.584 20.256H98.68V53.088H104.584C104.968 53.088 105.28 52.944 105.52 52.656C105.808 52.368 105.952 52.032 105.952 51.648ZM133.625 51.648H144.785V60H123.545V13.416H144.785V21.624H133.625V32.568H144.065V40.488H133.625V51.648ZM177.328 60H167.248V21.336C167.248 20.952 167.104 20.616 166.816 20.328C166.576 20.04 166.264 19.896 165.88 19.896H161.992C161.608 19.896 161.272 20.04 160.984 20.328C160.744 20.616 160.624 20.952 160.624 21.336V60H150.544V22.2C150.544 15.864 153.52 12.696 159.472 12.696H168.4C174.352 12.696 177.328 15.864 177.328 22.2V60ZM209.932 25.656H200.356V21.984C200.356 21.6 200.212 21.264 199.924 20.976C199.684 20.688 199.372 20.544 198.988 20.544H195.028C194.644 20.544 194.308 20.688 194.02 20.976C193.78 21.264 193.66 21.6 193.66 21.984V30.264C193.66 30.648 193.78 30.984 194.02 31.272C194.308 31.56 194.644 31.704 195.028 31.704H201.508C207.46 31.8 210.436 34.968 210.436 41.208V51.216C210.436 57.552 207.46 60.72 201.508 60.72H193.012C187.06 60.72 184.084 57.552 184.084 51.216V46.392H193.66V51.576C193.66 51.96 193.78 52.296 194.02 52.584C194.308 52.872 194.644 53.016 195.028 53.016H199.492C199.876 53.016 200.188 52.872 200.428 52.584C200.716 52.296 200.86 51.96 200.86 51.576V42.432C200.86 42.048 200.716 41.712 200.428 41.424C200.188 41.136 199.876 40.992 199.492 40.992H193.012C187.06 40.992 184.084 37.824 184.084 31.488V22.2C184.084 15.864 187.06 12.696 193.012 12.696H201.004C206.956 12.696 209.932 15.864 209.932 22.2V25.656ZM227.141 13.416V60H217.061V13.416H227.141ZM231.975 21.984V13.416H257.175V21.984H249.615V60H239.535V21.984H231.975ZM288.78 13.416L278.772 43.008V60H268.692V43.008L258.684 13.416H268.188L273.732 32.856L279.276 13.416H288.78Z" fill="white"/>
</g>
<defs>
<linearGradient id="paint0_linear_57_373" x1="36" y1="25.9375" x2="36" y2="46.0625" gradientUnits="userSpaceOnUse">
<stop stop-color="#7D19FF"/>
<stop offset="1" stop-color="#40D1FF"/>
</linearGradient>
<linearGradient id="paint1_linear_57_373" x1="35.9084" y1="-2.0625" x2="35.9084" y2="42.6386" gradientUnits="userSpaceOnUse">
<stop stop-color="#7D19FF"/>
<stop offset="1" stop-color="#40D1FF"/>
</linearGradient>
<linearGradient id="paint2_linear_57_373" x1="3.15166" y1="54.8584" x2="41.8772" y2="32.5002" gradientUnits="userSpaceOnUse">
<stop stop-color="#7D19FF"/>
<stop offset="1" stop-color="#40D1FF"/>
</linearGradient>
<linearGradient id="paint3_linear_57_373" x1="68.6158" y1="54.7009" x2="29.8902" y2="32.3427" gradientUnits="userSpaceOnUse">
<stop stop-color="#7D19FF"/>
<stop offset="1" stop-color="#40D1FF"/>
</linearGradient>
<clipPath id="clip0_57_373">
<rect width="292" height="72" fill="white"/>
</clipPath>
</defs>
</svg>
