<svg width="207" height="84" viewBox="0 0 207 84" fill="none" xmlns="http://www.w3.org/2000/svg">
<path d="M22.104 13.416C28.056 13.416 31.032 16.584 31.032 22.92V50.496C31.032 56.832 28.056 60 22.104 60H3.6V13.416H22.104ZM20.952 51.648V21.696C20.952 21.312 20.808 20.976 20.52 20.688C20.28 20.4 19.968 20.256 19.584 20.256H13.68V53.088H19.584C19.968 53.088 20.28 52.944 20.52 52.656C20.808 52.368 20.952 52.032 20.952 51.648ZM48.6253 51.648H59.7853V60H38.5453V13.416H59.7853V21.624H48.6253V32.568H59.0653V40.488H48.6253V51.648ZM92.3276 60H82.2476V21.336C82.2476 20.952 82.1036 20.616 81.8156 20.328C81.5756 20.04 81.2636 19.896 80.8796 19.896H76.9916C76.6076 19.896 76.2716 20.04 75.9836 20.328C75.7436 20.616 75.6236 20.952 75.6236 21.336V60H65.5436V22.2C65.5436 15.864 68.5196 12.696 74.4716 12.696H83.3996C89.3516 12.696 92.3276 15.864 92.3276 22.2V60ZM124.932 25.656H115.356V21.984C115.356 21.6 115.212 21.264 114.924 20.976C114.684 20.688 114.372 20.544 113.988 20.544H110.028C109.644 20.544 109.308 20.688 109.02 20.976C108.78 21.264 108.66 21.6 108.66 21.984V30.264C108.66 30.648 108.78 30.984 109.02 31.272C109.308 31.56 109.644 31.704 110.028 31.704H116.508C122.46 31.8 125.436 34.968 125.436 41.208V51.216C125.436 57.552 122.46 60.72 116.508 60.72H108.012C102.06 60.72 99.0844 57.552 99.0844 51.216V46.392H108.66V51.576C108.66 51.96 108.78 52.296 109.02 52.584C109.308 52.872 109.644 53.016 110.028 53.016H114.492C114.876 53.016 115.188 52.872 115.428 52.584C115.716 52.296 115.86 51.96 115.86 51.576V42.432C115.86 42.048 115.716 41.712 115.428 41.424C115.188 41.136 114.876 40.992 114.492 40.992H108.012C102.06 40.992 99.0844 37.824 99.0844 31.488V22.2C99.0844 15.864 102.06 12.696 108.012 12.696H116.004C121.956 12.696 124.932 15.864 124.932 22.2V25.656ZM142.141 13.416V60H132.061V13.416H142.141ZM146.975 21.984V13.416H172.175V21.984H164.615V60H154.535V21.984H146.975ZM203.78 13.416L193.772 43.008V60H183.692V43.008L173.684 13.416H183.188L188.732 32.856L194.276 13.416H203.78Z" fill="white"/>
<path d="M115.5 72L114 66L112.5 72L106 70.5L110.5 75L106 79.5L112.5 78L114 84L115.5 78L121.5 79.5L117.5 75L121.5 70.5L115.5 72Z" fill="#ED2124"/>
<path d="M96 72L94.5 66L93 72L86.5 70.5L91 75L86.5 79.5L93 78L94.5 84L96 78L102 79.5L98 75L102 70.5L96 72Z" fill="#ED2124"/>
<path d="M76.5 72L75 66L73.5 72L67 70.5L71.5 75L67 79.5L73.5 78L75 84L76.5 78L82.5 79.5L78.5 75L82.5 70.5L76.5 72Z" fill="#ED2124"/>
<path d="M135 72L133.5 66L132 72L125.5 70.5L130 75L125.5 79.5L132 78L133.5 84L135 78L141 79.5L137 75L141 70.5L135 72Z" fill="#ED2124"/>
</svg>
