<svg width="292" height="128" viewBox="0 0 292 128" fill="none" xmlns="http://www.w3.org/2000/svg">
<path d="M104.104 38.416C110.056 38.416 113.032 41.584 113.032 47.92V75.496C113.032 81.832 110.056 85 104.104 85H85.6V38.416H104.104ZM102.952 76.648V46.696C102.952 46.312 102.808 45.976 102.52 45.688C102.28 45.4 101.968 45.256 101.584 45.256H95.68V78.088H101.584C101.968 78.088 102.28 77.944 102.52 77.656C102.808 77.368 102.952 77.032 102.952 76.648ZM130.625 76.648H141.785V85H120.545V38.416H141.785V46.624H130.625V57.568H141.065V65.488H130.625V76.648ZM174.328 85H164.248V46.336C164.248 45.952 164.104 45.616 163.816 45.328C163.576 45.04 163.264 44.896 162.88 44.896H158.992C158.608 44.896 158.272 45.04 157.984 45.328C157.744 45.616 157.624 45.952 157.624 46.336V85H147.544V47.2C147.544 40.864 150.52 37.696 156.472 37.696H165.4C171.352 37.696 174.328 40.864 174.328 47.2V85ZM206.932 50.656H197.356V46.984C197.356 46.6 197.212 46.264 196.924 45.976C196.684 45.688 196.372 45.544 195.988 45.544H192.028C191.644 45.544 191.308 45.688 191.02 45.976C190.78 46.264 190.66 46.6 190.66 46.984V55.264C190.66 55.648 190.78 55.984 191.02 56.272C191.308 56.56 191.644 56.704 192.028 56.704H198.508C204.46 56.8 207.436 59.968 207.436 66.208V76.216C207.436 82.552 204.46 85.72 198.508 85.72H190.012C184.06 85.72 181.084 82.552 181.084 76.216V71.392H190.66V76.576C190.66 76.96 190.78 77.296 191.02 77.584C191.308 77.872 191.644 78.016 192.028 78.016H196.492C196.876 78.016 197.188 77.872 197.428 77.584C197.716 77.296 197.86 76.96 197.86 76.576V67.432C197.86 67.048 197.716 66.712 197.428 66.424C197.188 66.136 196.876 65.992 196.492 65.992H190.012C184.06 65.992 181.084 62.824 181.084 56.488V47.2C181.084 40.864 184.06 37.696 190.012 37.696H198.004C203.956 37.696 206.932 40.864 206.932 47.2V50.656ZM224.141 38.416V85H214.061V38.416H224.141ZM228.975 46.984V38.416H254.175V46.984H246.615V85H236.535V46.984H228.975ZM285.78 38.416L275.772 68.008V85H265.692V68.008L255.684 38.416H265.188L270.732 57.856L276.276 38.416H285.78Z" fill="white"/>
<mask id="mask0_61_320" style="mask-type:alpha" maskUnits="userSpaceOnUse" x="2" y="38" width="70" height="70">
<circle cx="37" cy="73" r="35" fill="#D9D9D9"/>
</mask>
<g mask="url(#mask0_61_320)">
<path d="M73.9052 65.719C57.1212 50.6415 42.8246 54.8035 36.3154 59.9461C57.9153 59.4876 55.7551 97.7726 48.0747 109.031C51.086 108.573 55.3565 106.128 56.4205 105.103C64.1861 85.9293 58.4222 74.2475 55.3234 69.8039C67.4058 80.7614 63.2537 96.9461 60.3205 102.436C64.7164 99.7269 68.6221 93.6434 70.0254 90.9402C70.8791 70.8213 56.7067 62.6389 49.5139 61.0625C71.7805 61.7385 72.2069 86.3441 72.2069 86.3441C75.4969 77.3755 75.1582 68.8627 73.9052 65.719Z" fill="url(#paint0_linear_61_320)"/>
<path d="M12.1037 44.2106C7.4081 66.2771 18.2302 76.5738 25.988 79.6386C14.7188 61.1681 49.1755 43.9023 62.8537 44.9239C60.9386 42.5462 56.6586 40.0711 55.2295 39.6625C34.6101 42.523 27.3286 53.3519 25.0149 58.2555C28.4855 42.3186 44.6816 37.8236 50.9423 37.6193C46.3693 35.1674 39.1014 34.8269 36.0391 34.9631C18.0737 44.2801 18.0737 60.6393 20.3194 67.6543C9.70343 48.0396 30.9353 35.3718 30.9353 35.3718C21.4626 37.0063 14.2132 41.5544 12.1037 44.2106Z" fill="url(#paint1_linear_61_320)"/>
<path d="M24.508 108.564C45.9574 101.567 49.5013 87.1052 48.3024 78.8969C37.8995 97.8321 5.82377 76.8188 -0.0864874 64.538C-1.19494 67.3752 -1.21282 72.2961 -0.856886 73.7301C11.8649 90.042 24.8636 90.8912 30.2612 90.4294C14.7305 95.4142 2.79019 83.7261 -0.497095 78.4411C-0.34931 83.6025 2.96632 90.0266 4.60566 92.5935C21.6023 103.392 35.7747 95.2099 40.7362 89.7688C29.0176 108.714 7.49526 96.7808 7.49526 96.7808C13.6173 104.114 21.1589 108.077 24.508 108.564Z" fill="url(#paint2_linear_61_320)"/>
</g>
<path d="M134.5 96L133 90L131.5 96L125 94.5L129.5 99L125 103.5L131.5 102L133 108L134.5 102L140.5 103.5L136.5 99L140.5 94.5L134.5 96Z" fill="#ED2124"/>
<path d="M115 96L113.5 90L112 96L105.5 94.5L110 99L105.5 103.5L112 102L113.5 108L115 102L121 103.5L117 99L121 94.5L115 96Z" fill="#ED2124"/>
<path d="M95.5 96L94 90L92.5 96L86 94.5L90.5 99L86 103.5L92.5 102L94 108L95.5 102L101.5 103.5L97.5 99L101.5 94.5L95.5 96Z" fill="#ED2124"/>
<path d="M154 96L152.5 90L151 96L144.5 94.5L149 99L144.5 103.5L151 102L152.5 108L154 102L160 103.5L156 99L160 94.5L154 96Z" fill="#ED2124"/>
<defs>
<linearGradient id="paint0_linear_61_320" x1="69.6158" y1="91.7009" x2="30.8902" y2="69.3427" gradientUnits="userSpaceOnUse">
<stop stop-color="#40D1FF"/>
<stop offset="1" stop-color="#181EA1"/>
</linearGradient>
<linearGradient id="paint1_linear_61_320" x1="36.9083" y1="34.9375" x2="36.9083" y2="79.6386" gradientUnits="userSpaceOnUse">
<stop stop-color="#40D1FF"/>
<stop offset="1" stop-color="#181EA1"/>
</linearGradient>
<linearGradient id="paint2_linear_61_320" x1="4.15166" y1="91.8584" x2="42.8772" y2="69.5002" gradientUnits="userSpaceOnUse">
<stop stop-color="#40D1FF"/>
<stop offset="1" stop-color="#181EA1"/>
</linearGradient>
</defs>
</svg>
